<?xml version="1.0" encoding="UTF-8"?>
<svg version="1.1" xmlns="http://www.w3.org/2000/svg" width="502" height="326">
<path d="M0 0 C1.91039062 -0.04640625 1.91039062 -0.04640625 3.859375 -0.09375 C7.25 0.5 7.25 0.5 9.578125 2.65625 C16.18003327 13.88566407 13.51416721 27.33071051 10.66015625 39.390625 C7.78490809 50.42640893 3.54203541 61.39402583 -1.75 71.5 C-2.41 71.17 -3.07 70.84 -3.75 70.5 C-3.48521851 69.50202393 -3.48521851 69.50202393 -3.21508789 68.48388672 C-2.4114028 65.44833035 -1.61191602 62.41168329 -0.8125 59.375 C-0.53470703 58.32828125 -0.25691406 57.2815625 0.02929688 56.203125 C0.29677734 55.18476562 0.56425781 54.16640625 0.83984375 53.1171875 C1.08597412 52.18503418 1.33210449 51.25288086 1.58569336 50.29248047 C3.78013864 41.06790675 5.25696926 30.9600515 0.25 22.5 C-3.47477652 18.18630454 -3.47477652 18.18630454 -8.60546875 16.19140625 C-23.28650439 15.37989172 -36.68327101 25.02553017 -48.94311523 32.02954102 C-52.19609495 33.88395495 -55.46425756 35.70433626 -58.75 37.5 C-59.65177979 37.99741699 -60.55355957 38.49483398 -61.48266602 39.00732422 C-69.11573229 42.87379993 -76.753842 43.71395823 -85.1875 44.5 C-97.72873626 45.67199303 -110.89025233 47.23998273 -119.453125 57.55078125 C-122.94462518 62.65577773 -126.17526793 67.86122669 -129.3125 73.1875 C-137.3047334 86.64871643 -147.44107382 93.45294322 -161.0625 101.0625 C-162.06925781 101.62678711 -163.07601563 102.19107422 -164.11328125 102.77246094 C-183.27471383 113.42113078 -183.27471383 113.42113078 -192.75 114.5 C-189.59081626 110.99674674 -186.06391232 108.79278861 -182 106.5 C-164.73911698 96.37970997 -151.40441934 85.64929128 -143.75 66.5 C-143.35859473 64.51054957 -143.00843625 62.51104993 -142.75 60.5 C-164.71583368 60.79252321 -181.23812258 68.2610898 -197.0703125 83.7734375 C-197.62460937 84.34320313 -198.17890625 84.91296875 -198.75 85.5 C-190.05593504 83.96362677 -181.40277306 82.25157349 -172.75 80.5 C-174.87168055 82.79910619 -176.90118864 84.27940523 -179.6640625 85.734375 C-180.79859863 86.34200684 -180.79859863 86.34200684 -181.95605469 86.96191406 C-182.75430664 87.38698242 -183.55255859 87.81205078 -184.375 88.25 C-200.40916877 97.02746114 -218.03234326 110.25498762 -224.1875 128.25 C-224.79533643 131.76194381 -224.85498101 134.10612974 -223.75 137.5 C-221.476517 139.07676534 -220.1673557 139.52185018 -217.39038086 139.37646484 C-210.27743165 137.90509518 -203.30357269 136.09184775 -196.3125 134.125 C-169.84026587 126.90905711 -145.17530456 121.88830578 -118.9375 133 C-118.2364917 133.29656494 -117.5354834 133.59312988 -116.81323242 133.89868164 C-115.08341918 134.67848896 -113.4101536 135.58117285 -111.75 136.5 C-111.42 137.49 -111.09 138.48 -110.75 139.5 C-112.24660156 139.61214844 -112.24660156 139.61214844 -113.7734375 139.7265625 C-146.91915749 142.60331623 -186.37108225 152.7992595 -211.75 175.5 C-212.73419922 176.37785156 -212.73419922 176.37785156 -213.73828125 177.2734375 C-222.66273159 186.3364048 -226.94344027 199.67199118 -231.10546875 211.41333008 C-241.0450927 239.03682685 -258.66286129 263.33449746 -285.44042969 276.48193359 C-298.55990786 282.26504395 -311.9963328 284.69645331 -326.25 284.6875 C-327.83554687 284.6884668 -327.83554687 284.6884668 -329.453125 284.68945312 C-337.7024413 284.63412234 -345.63055353 283.95733655 -353.75 282.5 C-351.53223602 279.99888426 -349.67905002 278.89210037 -346.53125 277.80859375 C-345.69053955 277.50888672 -344.8498291 277.20917969 -343.98364258 276.90039062 C-343.08154053 276.58263672 -342.17943848 276.26488281 -341.25 275.9375 C-315.21382904 266.62605125 -315.21382904 266.62605125 -296.75 247.5 C-295.44622762 242.88067402 -295.22606612 238.8659947 -297.0625 234.375 C-303.55288513 223.3238037 -318.33173634 219.20861118 -329.97265625 216.015625 C-354.85820184 209.84392512 -383.9682649 209.69918105 -408.75 216.5 C-410.06194336 216.85408936 -410.06194336 216.85408936 -411.40039062 217.21533203 C-431.44021491 222.81766935 -447.62959218 231.6894622 -461.9453125 246.8203125 C-463.75 248.5 -463.75 248.5 -465.75 248.5 C-462.29096389 237.17040346 -455.05503039 227.66634703 -447.75 218.5 C-447.12480469 217.70722656 -446.49960937 216.91445312 -445.85546875 216.09765625 C-427.57047775 194.19416177 -398.50641953 183.20065366 -370.75 180.5 C-368.08718234 180.4006162 -365.45107924 180.33666554 -362.7890625 180.33203125 C-362.04953842 180.32797775 -361.31001434 180.32392426 -360.54808044 180.31974792 C-358.157009 180.31033358 -355.76608744 180.31035084 -353.375 180.3125 C-352.55353485 180.3117749 -351.7320697 180.3110498 -350.88571167 180.31030273 C-340.48349005 180.31131336 -330.18106665 180.58056855 -319.8125 181.5 C-296.19777476 183.57855321 -276.29505136 184.07226792 -255.8125 170.5625 C-251.86339715 166.61339715 -249.54705135 162.82227367 -249.25 157.25 C-249.36347684 153.54649385 -249.36347684 153.54649385 -251.46118164 151.74731445 C-254.30861661 150.19557629 -255.68428879 150.33368461 -258.87109375 150.79296875 C-260.38135132 150.99539185 -260.38135132 150.99539185 -261.92211914 151.2019043 C-263.53848267 151.44227417 -263.53848267 151.44227417 -265.1875 151.6875 C-267.46591187 151.99134291 -269.74456247 152.29340057 -272.0234375 152.59375 C-273.16135742 152.7484375 -274.29927734 152.903125 -275.47167969 153.0625 C-308.16870314 157.42599911 -341.7287497 158.87224672 -369.54296875 138.44921875 C-376.57547468 133.02357595 -376.57547468 133.02357595 -377.75 129.5 C-377.13068604 129.58564209 -376.51137207 129.67128418 -375.87329102 129.75952148 C-373.01986087 130.15340069 -370.16618345 130.54546042 -367.3125 130.9375 C-366.33861328 131.07220703 -365.36472656 131.20691406 -364.36132812 131.34570312 C-361.49198016 131.73915887 -358.62128511 132.12097098 -355.75 132.5 C-355.01773193 132.60296387 -354.28546387 132.70592773 -353.53100586 132.81201172 C-331.78729068 135.61650723 -308.7397053 134.95057849 -288.75 125.5 C-287.49044097 124.93817746 -286.22996779 124.37840137 -284.96875 123.8203125 C-277.92589201 120.65444281 -271.17461233 117.22260198 -264.54199219 113.2644043 C-255.3379509 107.78105162 -245.95814748 103.19406522 -236.0625 99.125 C-235.13005463 98.73979187 -235.13005463 98.73979187 -234.17877197 98.34680176 C-227.42407274 95.57330237 -220.70414127 93.10684776 -213.671875 91.14672852 C-207.20379049 89.32551722 -203.09848453 87.81191765 -199.5625 81.6875 C-198.61486645 79.62963626 -197.67682193 77.56732039 -196.75 75.5 C-184.08501544 56.45718311 -165.30231138 46.22537509 -143.37890625 41.3671875 C-130.39937669 38.77870989 -117.07909439 37.82474917 -103.90234375 36.7890625 C-102.37938887 36.66616711 -100.85643965 36.54320164 -99.33349609 36.42016602 C-96.38563338 36.18270039 -93.43729725 35.96739766 -90.48681641 35.76538086 C-78.16619665 34.8489689 -68.71329154 31.38701432 -58.0625 25.3125 C-57.20237305 24.83200195 -56.34224609 24.35150391 -55.45605469 23.85644531 C-51.44186077 21.60950658 -47.44754583 19.32956499 -43.46484375 17.02734375 C-34.47594586 11.85072605 -25.36964454 7.38900601 -15.75 3.5 C-15.09870117 3.22188477 -14.44740234 2.94376953 -13.77636719 2.65722656 C-9.11176419 0.75196618 -5.10081032 0.04163927 0 0 Z " fill="#229894" transform="translate(465.75,-0.5)"/>
<path d="M0 0 C-4.51253482 4.7632312 -4.51253482 4.7632312 -7.1875 6.0625 C-9.60217342 7.31146901 -9.85361933 8.54406769 -11 11 C-11.69416016 12.31871094 -11.69416016 12.31871094 -12.40234375 13.6640625 C-12.90894531 14.64117187 -13.41554688 15.61828125 -13.9375 16.625 C-14.44152344 17.58664063 -14.94554687 18.54828125 -15.46484375 19.5390625 C-18.98946304 27.48515077 -20.56219201 34.81225426 -20.5 43.5 C-20.49500488 44.41910156 -20.49000977 45.33820313 -20.48486328 46.28515625 C-20.26756995 54.71314042 -18.4338803 60.97817402 -12.25 66.9375 C-7.58223184 69.89973748 -2.95494921 72.49177257 2.67578125 71.5546875 C5.36592486 70.11181611 5.36592486 70.11181611 6.0390625 66.54296875 C6.25508319 65.09408234 6.44912174 63.64180519 6.625 62.1875 C6.85985522 60.63379205 7.09685519 59.08040686 7.3359375 57.52734375 C7.44776367 56.7576123 7.55958984 55.98788086 7.67480469 55.19482422 C9.85500256 40.48012537 14.99530049 27.46195257 27 18 C27.66 18 28.32 18 29 18 C28.72285156 19.16917969 28.44570313 20.33835938 28.16015625 21.54296875 C27.79422599 23.09113523 27.42834307 24.63931291 27.0625 26.1875 C26.88009766 26.95642578 26.69769531 27.72535156 26.50976562 28.51757812 C26.33251953 29.26845703 26.15527344 30.01933594 25.97265625 30.79296875 C25.81031494 31.4789917 25.64797363 32.16501465 25.48071289 32.87182617 C25.32207764 33.57412354 25.16344238 34.2764209 25 35 C24.82611755 35.74784256 24.65223511 36.49568512 24.4730835 37.26618958 C23.9650525 40.20195134 23.90805547 42.8906915 23.94995117 45.86914062 C23.96293747 47.0280481 23.97592377 48.18695557 23.98930359 49.38098145 C24.00701309 50.62682007 24.0247226 51.87265869 24.04296875 53.15625 C24.05963307 55.13404689 24.07627165 57.11184435 24.09147358 59.08965302 C24.12938368 63.94637208 24.17551432 68.80282832 24.24682617 73.65917969 C24.28631756 76.38523593 24.31464174 79.11098772 24.33113098 81.83728027 C24.34690915 84.39415554 24.37809255 86.95100043 24.42753601 89.50744629 C24.47763267 106.31305457 18.01006812 121.63077097 6.35546875 133.734375 C-15.88202439 155.12367189 -46.03092188 162.40301265 -76.20263672 161.96826172 C-87.06530335 161.6231311 -87.06530335 161.6231311 -91 159 C-89.72189453 158.57460938 -89.72189453 158.57460938 -88.41796875 158.140625 C-87.29003906 157.76421875 -86.16210938 157.3878125 -85 157 C-83.38544922 156.46632813 -83.38544922 156.46632813 -81.73828125 155.921875 C-60.81550953 148.7647125 -43.44586957 135.94967133 -33 116 C-29.54833103 108.29775945 -27.55801741 100.447721 -29 92 C-30.73442766 88.512572 -30.73442766 88.512572 -34 87 C-47.44331663 86.30465604 -61.59971646 99.301783 -71.203125 107.76953125 C-73.20363736 109.57934903 -75.17162129 111.42094304 -77.12890625 113.27734375 C-79.91883682 115.92303302 -82.76508812 118.49289468 -85.625 121.0625 C-90.95931219 125.89801004 -96.00296427 131.00485226 -101.0625 136.125 C-107.42256983 142.54038051 -113.77007851 148.56337144 -121 154 C-121.85207031 154.66902344 -122.70414062 155.33804688 -123.58203125 156.02734375 C-134.63827078 164.46116629 -146.45767322 170.66157125 -160 174 C-160.73863281 174.19078125 -161.47726563 174.3815625 -162.23828125 174.578125 C-181.30098724 177.49010838 -201.15530769 173.81870357 -219 167 C-219 166.34 -219 165.68 -219 165 C-217.78570312 164.85304688 -216.57140625 164.70609375 -215.3203125 164.5546875 C-194.94914267 161.9490493 -174.3630014 158.57242765 -156 149 C-154.95199219 148.46761719 -153.90398437 147.93523437 -152.82421875 147.38671875 C-130.44960783 135.22723499 -115.67340701 113.89756664 -102.03125 93.05859375 C-93.16719898 79.71137847 -83.58024591 66.83718304 -74 54 C-73.33887207 53.11135254 -72.67774414 52.22270508 -71.99658203 51.30712891 C-32.48475875 -1.68508835 -32.48475875 -1.68508835 0 0 Z " fill="#229894" transform="translate(357,151)"/>
<path d="M0 0 C1.91039062 -0.04640625 1.91039062 -0.04640625 3.859375 -0.09375 C7.25 0.5 7.25 0.5 9.578125 2.65625 C16.18003327 13.88566407 13.51416721 27.33071051 10.66015625 39.390625 C7.78490809 50.42640893 3.54203541 61.39402583 -1.75 71.5 C-2.41 71.17 -3.07 70.84 -3.75 70.5 C-3.48521851 69.50202393 -3.48521851 69.50202393 -3.21508789 68.48388672 C-2.4114028 65.44833035 -1.61191602 62.41168329 -0.8125 59.375 C-0.53470703 58.32828125 -0.25691406 57.2815625 0.02929688 56.203125 C0.29677734 55.18476562 0.56425781 54.16640625 0.83984375 53.1171875 C1.20903931 51.71895752 1.20903931 51.71895752 1.58569336 50.29248047 C3.78013864 41.06790675 5.25696926 30.9600515 0.25 22.5 C-3.47477652 18.18630454 -3.47477652 18.18630454 -8.60546875 16.19140625 C-23.28650439 15.37989172 -36.68327101 25.02553017 -48.94311523 32.02954102 C-52.19609495 33.88395495 -55.46425756 35.70433626 -58.75 37.5 C-59.65177979 37.99741699 -60.55355957 38.49483398 -61.48266602 39.00732422 C-69.11573229 42.87379993 -76.753842 43.71395823 -85.1875 44.5 C-97.72873626 45.67199303 -110.89025233 47.23998273 -119.453125 57.55078125 C-122.94462518 62.65577773 -126.17526793 67.86122669 -129.3125 73.1875 C-137.3047334 86.64871643 -147.44107382 93.45294322 -161.0625 101.0625 C-162.06925781 101.62678711 -163.07601562 102.19107422 -164.11328125 102.77246094 C-183.27471383 113.42113078 -183.27471383 113.42113078 -192.75 114.5 C-189.59081626 110.99674674 -186.06391232 108.79278861 -182 106.5 C-164.73911698 96.37970997 -151.40441934 85.64929128 -143.75 66.5 C-143.35859473 64.51054957 -143.00843625 62.51104993 -142.75 60.5 C-163.65032381 60.77833361 -179.12390413 67.36559716 -194.75 81.5 C-196.89735813 83.7590704 -198.81967472 86.04796519 -200.75 88.5 C-201.74 88.17 -202.73 87.84 -203.75 87.5 C-191.14294138 64.85327768 -175.86320933 51.27821037 -151.1484375 43.34375 C-135.79684917 39.0776244 -119.73010878 38.03311771 -103.90234375 36.7890625 C-102.37938887 36.66616711 -100.85643965 36.54320164 -99.33349609 36.42016602 C-96.38563338 36.18270039 -93.43729725 35.96739766 -90.48681641 35.76538086 C-78.16619665 34.8489689 -68.71329154 31.38701432 -58.0625 25.3125 C-57.20237305 24.83200195 -56.34224609 24.35150391 -55.45605469 23.85644531 C-51.44186077 21.60950658 -47.44754583 19.32956499 -43.46484375 17.02734375 C-34.47594586 11.85072605 -25.36964454 7.38900601 -15.75 3.5 C-15.09870117 3.22188477 -14.44740234 2.94376953 -13.77636719 2.65722656 C-9.11176419 0.75196618 -5.10081032 0.04163927 0 0 Z " fill="#1CD1CA" transform="translate(465.75,-0.5)"/>
<path d="M0 0 C0.33 0 0.66 0 1 0 C2.20241555 14.65801811 2.20241555 14.65801811 -1.5 19.4375 C-9.42518532 26.74942693 -20.76040885 30.48654006 -30.52563477 34.66455078 C-58.84894774 46.78617549 -85.11416862 61.85644086 -98 91.2734375 C-99.52387974 95.42839085 -100.3647259 99.62893494 -101 104 C-101.99 103.505 -101.99 103.505 -103 103 C-104.10830779 82.46551954 -96.12808446 68.12260069 -83 53 C-83.79019531 53.27714844 -84.58039063 53.55429688 -85.39453125 53.83984375 C-102.50948111 59.33618765 -121.80190303 60.13382161 -138.5625 52.8125 C-139.696875 52.214375 -140.83125 51.61625 -142 51 C-141.67 50.34 -141.34 49.68 -141 49 C-139.61554688 49.23589844 -139.61554688 49.23589844 -138.203125 49.4765625 C-111.71875486 53.20881326 -89.22780293 45.61562163 -65.8671875 33.95703125 C-54.01439688 28.11755937 -43.32336396 23.66804867 -30.09106445 22.25097656 C-20.6297949 21.19686095 -11.28968456 17.45503221 -5 10 C-3.08808836 6.7633374 -1.4809065 3.45317368 0 0 Z " fill="#24D2CC" transform="translate(501,103)"/>
<path d="M0 0 C-0.41482737 4.4567351 -3.51091855 6.88237223 -6.5625 9.8125 C-7.37460937 10.60926147 -7.37460937 10.60926147 -8.203125 11.42211914 C-11.2204838 14.36019165 -14.30331601 17.19403208 -17.5 19.9375 C-22.90927547 24.58522116 -27.21945352 29.65220183 -28.2890625 36.98046875 C-28.5482146 43.07054319 -26.45140377 47.6673868 -23.25 52.8125 C-22.8375 53.534375 -22.425 54.25625 -22 55 C-22.33 55.66 -22.66 56.32 -23 57 C-35.77977075 50.19657299 -45.1487472 40.77254343 -50.09765625 26.9296875 C-51.28871557 22.7748294 -52 19.3450303 -52 15 C-50.68708984 15.18175781 -50.68708984 15.18175781 -49.34765625 15.3671875 C-45.4508332 14.93976467 -44.30165673 13.75526997 -41.80664062 10.83203125 C-41.35482422 10.26871094 -40.90300781 9.70539062 -40.4375 9.125 C-36.45728033 4.27217205 -33.55863318 1.39249852 -27.10913086 0.68115234 C-26.07151611 0.64973145 -25.03390137 0.61831055 -23.96484375 0.5859375 C-22.25651367 0.52792969 -22.25651367 0.52792969 -20.51367188 0.46875 C-19.33353516 0.4378125 -18.15339844 0.406875 -16.9375 0.375 C-15.75349609 0.33632813 -14.56949219 0.29765625 -13.34960938 0.2578125 C-8.89725012 0.11654784 -4.45482433 0 0 0 Z " fill="#19D0CA" transform="translate(396,51)"/>
<path d="M0 0 C0.99 0.33 1.98 0.66 3 1 C2.49339844 2.051875 2.49339844 2.051875 1.9765625 3.125 C-2.98808174 13.68563053 -5.32019624 22.3990188 -3 34 C0.63 34.33 4.26 34.66 8 35 C8.66 33.35 9.32 31.7 10 30 C10.99 29.67 11.98 29.34 13 29 C13.495 31.475 13.495 31.475 14 34 C17.26460973 32.19587357 18.88929795 31.16605307 21 28 C21.66 28 22.32 28 23 28 C24.5 30.5 24.5 30.5 26 33 C26.66 33 27.32 33 28 33 C28.33 29.04 28.66 25.08 29 21 C33.22274294 22.40758098 33.96431683 24.83207287 35.9921875 28.6328125 C37.23075976 31.54201711 37.40077351 33.87396663 37 37 C25.16606629 41.33910903 13.74457253 42.34484692 1.1875 42.3125 C-0.08287109 42.32861328 -1.35324219 42.34472656 -2.66210938 42.36132812 C-9.1866728 42.36474234 -14.26635806 42.24820672 -20 39 C-20.43904236 33.01020783 -19.13972479 29.08955372 -16.5 23.75 C-16.14196289 23.00854736 -15.78392578 22.26709473 -15.41503906 21.50317383 C-11.3979515 13.42251275 -6.51338913 6.29723684 0 0 Z " fill="#25D3CC" transform="translate(455,59)"/>
<path d="M0 0 C0.66 0.33 1.32 0.66 2 1 C1.01 1.8971875 1.01 1.8971875 0 2.8125 C-2.3373846 4.87501834 -2.3373846 4.87501834 -2 8 C-13.33712984 13.55580866 -13.33712984 13.55580866 -20 14 C-16.58850739 10.16755201 -12.70230796 7.8478125 -8.3125 5.3125 C-3.90415622 2.98249481 -3.90415622 2.98249481 0 0 Z " fill="#5EDEDA" transform="translate(293,100)"/>
<path d="M0 0 C0.66 0.33 1.32 0.66 2 1 C-5.59 8.59 -13.18 16.18 -21 24 C-21 19.6782199 -18.39351052 17.78251059 -15.5625 14.8125 C-15.02206055 14.23604736 -14.48162109 13.65959473 -13.92480469 13.06567383 C-9.5267051 8.42820865 -4.9053275 4.10016011 0 0 Z " fill="#71BDBA" transform="translate(319,164)"/>
<path d="M0 0 C-1.36983503 3.16115776 -1.9890638 3.9927092 -5 6 C-7.26171875 6.1953125 -7.26171875 6.1953125 -9.6875 6.125 C-10.49574219 6.10695313 -11.30398438 6.08890625 -12.13671875 6.0703125 C-13.05904297 6.03550781 -13.05904297 6.03550781 -14 6 C-14 5.01 -14 4.02 -14 3 C-9.37428046 0.95924138 -5.06116446 0 0 0 Z " fill="#E2F1EE" transform="translate(379,56)"/>
<path d="M0 0 C0.33 1.32 0.66 2.64 1 4 C1.66 4 2.32 4 3 4 C2.37183502 7.94949704 1.1354471 11.19892028 -0.5625 14.8125 C-1.01753906 15.78832031 -1.47257812 16.76414062 -1.94140625 17.76953125 C-2.29074219 18.50558594 -2.64007813 19.24164063 -3 20 C-3.66 19.67 -4.32 19.34 -5 19 C-3.35 12.73 -1.7 6.46 0 0 Z " fill="#83E6E2" transform="translate(467,51)"/>
<path d="M0 0 C0.66 0.33 1.32 0.66 2 1 C-2.29 5.29 -6.58 9.58 -11 14 C-11.66 13.67 -12.32 13.34 -13 13 C-8.96476648 8.18876004 -4.95532767 3.86757281 0 0 Z " fill="#79C0BE" transform="translate(32,204)"/>
<path d="M0 0 C0.99 0.33 1.98 0.66 3 1 C2.01 2.98 1.02 4.96 0 7 C-0.99 7 -1.98 7 -3 7 C-5.67398476 8.93897879 -5.67398476 8.93897879 -8 11 C-6.52670958 5.99081256 -3.72484762 3.48192278 0 0 Z " fill="#73E3DF" transform="translate(455,59)"/>
<path d="M0 0 C-1.6188996 1.03048037 -3.24532489 2.04914678 -4.875 3.0625 C-5.77992188 3.63097656 -6.68484375 4.19945313 -7.6171875 4.78515625 C-8.40351563 5.18605469 -9.18984375 5.58695312 -10 6 C-10.66 5.67 -11.32 5.34 -12 5 C-11.67 4.34 -11.34 3.68 -11 3 C-12.32 2.67 -13.64 2.34 -15 2 C-12.87707704 1.47076428 -10.75157949 0.95184623 -8.625 0.4375 C-7.44164062 0.14746094 -6.25828125 -0.14257812 -5.0390625 -0.44140625 C-2 -1 -2 -1 0 0 Z " fill="#86C7C5" transform="translate(293,81)"/>
<path d="M0 0 C-0.99 0.495 -0.99 0.495 -2 1 C-1.01 1.66 -0.02 2.32 1 3 C-0.258125 3.04125 -1.51625 3.0825 -2.8125 3.125 C-3.52019531 3.14820313 -4.22789062 3.17140625 -4.95703125 3.1953125 C-7 3 -7 3 -10 1 C-3.71428571 -1.42857143 -3.71428571 -1.42857143 0 0 Z " fill="#7FC4C1" transform="translate(276,309)"/>
<path d="M0 0 C2.64 0.33 5.28 0.66 8 1 C8.33 2.32 8.66 3.64 9 5 C5.26512223 4.5020163 3.18762365 4.12508244 0 2 C0 1.34 0 0.68 0 0 Z " fill="#6FE2DE" transform="translate(359,152)"/>
<path d="M0 0 C0.33 1.32 0.66 2.64 1 4 C1.66 4 2.32 4 3 4 C2.6875 6.375 2.6875 6.375 2 9 C1.01 9.66 0.02 10.32 -1 11 C-1.14285714 3.57142857 -1.14285714 3.57142857 0 0 Z " fill="#5FDEDA" transform="translate(467,51)"/>
<path d="M0 0 C0.66 0.33 1.32 0.66 2 1 C1.01 1.8971875 1.01 1.8971875 0 2.8125 C-2.3373846 4.87501834 -2.3373846 4.87501834 -2 8 C-2.99 8.33 -3.98 8.66 -5 9 C-5 8.01 -5 7.02 -5 6 C-5.66 5.67 -6.32 5.34 -7 5 C-4.69 3.35 -2.38 1.7 0 0 Z " fill="#6DE1DD" transform="translate(293,100)"/>
<path d="M0 0 C-0.33 1.65 -0.66 3.3 -1 5 C-1.99 5 -2.98 5 -4 5 C-5.68798827 6.43750191 -5.68798827 6.43750191 -7 8 C-7.66 7.67 -8.32 7.34 -9 7 C-7.88121617 5.82737096 -6.75476949 4.66204862 -5.625 3.5 C-4.68527344 2.52546875 -4.68527344 2.52546875 -3.7265625 1.53125 C-2 0 -2 0 0 0 Z " fill="#72BDBB" transform="translate(386,169)"/>
<path d="M0 0 C0.33 0 0.66 0 1 0 C1.20086443 3.71599191 1.1519437 4.77208445 -1 8 C-1.99 7.67 -2.98 7.34 -4 7 C-2.68 4.69 -1.36 2.38 0 0 Z " fill="#76DFDC" transform="translate(266,80)"/>
<path d="M0 0 C0.66 0.33 1.32 0.66 2 1 C1.01 2.485 1.01 2.485 0 4 C-3.125 4.1875 -3.125 4.1875 -6 4 C-3.94766315 1.7522025 -2.99332739 0.9977758 0 0 Z " fill="#79C1BE" transform="translate(118,278)"/>
</svg>
